<svg width="475" height="155" viewBox="0 0 475 155" fill="none" xmlns="http://www.w3.org/2000/svg">
<path d="M31.2133 98.3895L126.673 2.93013L179.706 55.9631C183.611 59.8684 183.611 66.2 179.706 70.1053L98.3885 151.423C94.4832 155.328 88.1516 155.328 84.2463 151.423L31.2133 98.3895Z" fill="#242D8F"/>
<path d="M2.92893 70.1051C-0.976311 66.1999 -0.97631 59.8683 2.92893 55.963L17.0711 41.8209L31.2132 55.963C35.1184 59.8683 35.1184 66.1999 31.2132 70.1051L17.0711 84.2473L2.92893 70.1051Z" fill="#26AA82"/>
<path d="M39.8266 82.9042V42.9042L79.8266 42.9042V82.9042H39.8266Z" fill="#26AA82"/>
<path d="M38.2836 105.46L52.4258 91.3177C56.331 87.4125 62.6627 87.4125 66.5679 91.3177L80.7101 105.46L66.5679 119.602C62.6627 123.507 56.331 123.507 52.4258 119.602L38.2836 105.46Z" fill="#26AA82"/>
<path d="M24.1411 91.3173L112.529 2.92893C116.435 -0.976309 122.766 -0.976312 126.672 2.92893L31.2121 98.3883L24.1411 91.3173Z" fill="#26AA82"/>
<path d="M87.7805 70.1042C83.8753 66.1989 83.8753 59.8673 87.7805 55.962L101.923 41.8199L116.065 55.962C119.97 59.8673 119.97 66.1989 116.065 70.1042L101.923 84.2463L87.7805 70.1042Z" fill="#26AA82"/>
<path d="M38.2836 20.6073L52.4258 6.46518C56.331 2.55994 62.6627 2.55994 66.5679 6.46518L80.7101 20.6073L66.5679 34.7495C62.6627 38.6547 56.331 38.6547 52.4258 34.7495L38.2836 20.6073Z" fill="#26AA82"/>
<path d="M24.1411 34.7489L31.2121 27.6779L126.672 123.137L119.6 130.208L24.1411 34.7489Z" fill="#26AA82"/>
<path d="M60.0688 44.9042C60.0688 54.8454 52.0098 62.9042 42.0688 62.9042C52.0098 62.9042 60.0688 70.963 60.0688 80.9042C60.0688 70.963 68.1278 62.9042 78.0688 62.9042C68.1278 62.9042 60.0688 54.8454 60.0688 44.9042Z" fill="#242D8F"/>
<path d="M133.739 10.0062C129.835 6.10267 123.508 6.10092 119.602 10.0009L126.668 2.93509L133.739 10.0062Z" fill="#26AA82"/>
<path fill-rule="evenodd" clip-rule="evenodd" d="M258.741 123C258.074 123 257.463 122.842 256.908 122.528C256.371 122.194 255.936 121.759 255.602 121.222C255.287 120.666 255.13 120.055 255.13 119.389V106.611C255.13 105.944 255.287 105.343 255.602 104.806C255.936 104.25 256.371 103.815 256.908 103.5C257.463 103.167 258.074 103 258.741 103H271.519C272.167 103 272.769 103.167 273.324 103.5C273.88 103.815 274.315 104.25 274.63 104.806C274.963 105.343 275.13 105.944 275.13 106.611V119.389C275.13 120.055 274.963 120.666 274.63 121.222C274.315 121.759 273.88 122.194 273.324 122.528C272.769 122.842 272.167 123 271.519 123H258.741ZM258.824 120H271.436C271.621 120 271.778 119.935 271.908 119.805C272.037 119.657 272.102 119.491 272.102 119.305V106.694C272.102 106.509 272.037 106.352 271.908 106.222C271.778 106.074 271.621 106 271.436 106H258.824C258.639 106 258.473 106.074 258.324 106.222C258.195 106.352 258.13 106.509 258.13 106.694V119.305C258.13 119.491 258.195 119.657 258.324 119.805C258.473 119.935 258.639 120 258.824 120ZM416.685 123V103H419.685V123H416.685ZM428.598 122.528C429.154 122.842 429.765 123 430.432 123H443.21C443.858 123 444.46 122.842 445.015 122.528C445.571 122.194 446.006 121.759 446.321 121.222C446.654 120.666 446.821 120.055 446.821 119.389V106.611C446.821 105.944 446.654 105.343 446.321 104.806C446.006 104.25 445.571 103.815 445.015 103.5C444.46 103.167 443.858 103 443.21 103H430.432C429.765 103 429.154 103.167 428.598 103.5C428.061 103.815 427.626 104.25 427.293 104.806C426.978 105.343 426.821 105.944 426.821 106.611V119.389C426.821 120.055 426.978 120.666 427.293 121.222C427.626 121.759 428.061 122.194 428.598 122.528ZM443.126 120H430.515C430.33 120 430.163 119.935 430.015 119.805C429.885 119.657 429.821 119.491 429.821 119.305V106.694C429.821 106.509 429.885 106.352 430.015 106.222C430.163 106.074 430.33 106 430.515 106H443.126C443.311 106 443.469 106.074 443.598 106.222C443.728 106.352 443.793 106.509 443.793 106.694V119.305C443.793 119.491 443.728 119.657 443.598 119.805C443.469 119.935 443.311 120 443.126 120ZM454.045 103V123H457.045V107.028L470.462 123H474.045V103H471.018V118.944L457.629 103H454.045ZM399.025 106V123H402.025V106H410.525V103H390.525V106H399.025ZM364.194 123V106.611C364.194 105.945 364.351 105.343 364.666 104.806C364.999 104.25 365.434 103.815 365.972 103.5C366.527 103.167 367.138 103 367.805 103H380.555C381.222 103 381.833 103.167 382.388 103.5C382.944 103.815 383.379 104.25 383.694 104.806C384.027 105.343 384.194 105.945 384.194 106.611V123H381.166V116H367.194V123H364.194ZM367.194 113H381.166V106.695C381.166 106.509 381.101 106.352 380.972 106.222C380.842 106.074 380.685 106 380.499 106H367.888C367.703 106 367.536 106.074 367.388 106.222C367.259 106.352 367.194 106.509 367.194 106.695V113ZM336.861 103V123H353.223C353.889 123 354.5 122.843 355.056 122.528C355.612 122.194 356.047 121.759 356.362 121.222C356.695 120.667 356.862 120.056 356.862 119.389V106.611C356.862 105.945 356.695 105.343 356.362 104.806C356.047 104.25 355.612 103.815 355.056 103.5C354.5 103.167 353.889 103 353.223 103H336.861ZM353.167 120H340.528C340.343 120 340.186 119.935 340.056 119.806C339.926 119.657 339.861 119.491 339.861 119.306V106.695C339.861 106.509 339.926 106.352 340.056 106.222C340.186 106.074 340.343 106 340.528 106H353.167C353.352 106 353.51 106.074 353.639 106.222C353.769 106.352 353.834 106.509 353.834 106.695V119.306C353.834 119.491 353.769 119.657 353.639 119.806C353.51 119.935 353.352 120 353.167 120ZM309.526 123V103H313.109L326.498 118.944V103H329.526V123H325.942L312.526 107.028V123H309.526ZM284.077 122.528C284.632 122.843 285.243 123 285.91 123H298.688C299.336 123 299.938 122.843 300.493 122.528C301.049 122.194 301.484 121.759 301.799 121.222C302.132 120.667 302.299 120.056 302.299 119.389V103H299.271V119.306C299.271 119.491 299.206 119.657 299.077 119.806C298.947 119.935 298.79 120 298.605 120H285.993C285.808 120 285.642 119.935 285.493 119.806C285.364 119.657 285.299 119.491 285.299 119.306V103H282.299V119.389C282.299 120.056 282.456 120.667 282.771 121.222C283.105 121.759 283.54 122.194 284.077 122.528ZM231 103V123H234.028V114.5H246.333V111.5H234.028V106H249.333V103H231Z" fill="#002065"/>
<path fill-rule="evenodd" clip-rule="evenodd" d="M217.857 42.8584L241.024 82.8584H247.58L270.746 42.8584H262.246L244.302 73.9695L226.413 42.8584H217.857ZM282.297 82.8584V42.8584H289.575V82.8584H282.297ZM306.957 81.8028C308.142 82.5065 309.438 82.8584 310.846 82.8584H335.401C336.809 82.8584 338.086 82.5065 339.235 81.8028C340.42 81.0991 341.364 80.1732 342.068 79.0251C342.772 77.8399 343.123 76.5436 343.123 75.1362V66.914C343.123 65.4695 342.772 64.1732 342.068 63.0251C341.364 61.8399 340.42 60.8954 339.235 60.1917C338.086 59.488 336.809 59.1362 335.401 59.1362H311.123C310.938 59.1362 310.772 59.0806 310.623 58.9695C310.512 58.8584 310.457 58.7103 310.457 58.5251V50.914C310.457 50.7288 310.512 50.5806 310.623 50.4695C310.772 50.3214 310.938 50.2473 311.123 50.2473H335.068C335.253 50.2473 335.401 50.3214 335.512 50.4695C335.66 50.5806 335.735 50.7288 335.735 50.914V53.6362H343.123V50.5806C343.123 49.1732 342.772 47.8954 342.068 46.7473C341.364 45.5621 340.42 44.6177 339.235 43.914C338.086 43.2103 336.809 42.8584 335.401 42.8584H310.846C309.438 42.8584 308.142 43.2103 306.957 43.914C305.809 44.6177 304.883 45.5621 304.179 46.7473C303.475 47.8954 303.123 49.1732 303.123 50.5806V58.8028C303.123 60.2473 303.475 61.5621 304.179 62.7473C304.883 63.8954 305.809 64.8214 306.957 65.5251C308.142 66.2288 309.438 66.5806 310.846 66.5806H335.068C335.253 66.5806 335.401 66.6362 335.512 66.7473C335.66 66.8584 335.735 67.0065 335.735 67.1917V74.8028C335.735 74.988 335.66 75.1547 335.512 75.3028C335.401 75.414 335.253 75.4695 335.068 75.4695H311.123C310.938 75.4695 310.772 75.414 310.623 75.3028C310.512 75.1547 310.457 74.988 310.457 74.8028V72.0806H303.123V75.1362C303.123 76.5436 303.475 77.8399 304.179 79.0251C304.883 80.1732 305.809 81.0991 306.957 81.8028ZM357.634 82.8584V42.8584H394.467V50.2473H365.023V59.1362H388.69V66.5806H365.023V75.4695H394.467V82.8584H357.634ZM407.143 42.8584V82.8584H414.476V53.5806L429.698 71.5806L444.865 53.5251V82.8584H452.254V42.8584H444.143L429.698 60.1362L415.198 42.8584H407.143ZM466.238 42.8584V82.8584H473.516V42.8584H466.238Z" fill="#002065"/>
</svg>
